<svg width="256" height="296" viewBox="0 0 256 296" fill="none" xmlns="http://www.w3.org/2000/svg">
<g clip-path="url(#clip0_1_3870)">
<path d="M251.997 219.382V76.2125L127.158 4.61719L4.00293 76.2019V219.382L127.158 290.967L251.997 219.382Z" fill="black"/>
<path d="M192.601 200.67L133.639 166.212V46.1384L192.601 80.5965V200.67Z" fill="url(#paint0_linear_1_3870)"/>
<path d="M159.033 221.235L100.049 186.766V66.6926L159.022 101.151V221.235H159.033Z" fill="white"/>
<path d="M125.464 239.745L66.4912 205.287V85.2136L125.464 119.672V239.745Z" fill="url(#paint1_linear_1_3870)"/>
<path d="M127.148 295.594L0 221.69V73.9038L127.148 0L256 73.8826V221.701L127.148 295.594ZM8.00563 217.084L127.179 286.349L248.005 217.063V78.5314L127.169 9.24459L7.99504 78.5102V217.084H8.00563Z" fill="white"/>
</g>
<defs>
<linearGradient id="paint0_linear_1_3870" x1="145.266" y1="237.977" x2="173.709" y2="55.4677" gradientUnits="userSpaceOnUse">
<stop/>
<stop offset="0.51" stop-color="#32343B"/>
<stop offset="1" stop-color="#B3B6C3"/>
</linearGradient>
<linearGradient id="paint1_linear_1_3870" x1="95.9722" y1="338.566" x2="95.9722" y2="110.025" gradientUnits="userSpaceOnUse">
<stop stop-color="#FF4FFF"/>
<stop offset="1" stop-color="#FAE400"/>
</linearGradient>
<clipPath id="clip0_1_3870">
<rect width="256" height="295.594" fill="white"/>
</clipPath>
</defs>
</svg>
