<svg width="32" height="33" viewBox="0 0 32 33" fill="none" xmlns="http://www.w3.org/2000/svg">
<g id="icons" clip-path="url(#clip0_184_1318)">
<path id="Vector" d="M31.5 0.5H0.5V27.625H31.5V0.5Z" stroke="black" stroke-linecap="round" stroke-linejoin="round"/>
<path id="Vector_2" d="M0.910156 23.04H31.4002" stroke="black" stroke-linecap="round" stroke-linejoin="round"/>
<path id="Vector_3" d="M24.48 0.72998V22.6" stroke="black" stroke-linecap="round" stroke-linejoin="round"/>
<path id="Vector_4" d="M26.9648 4.6499H28.4798" stroke="black" stroke-linecap="round" stroke-linejoin="round"/>
<path id="Vector_5" d="M27.4902 8.29492H29.0052" stroke="black" stroke-linecap="round" stroke-linejoin="round"/>
<path id="Vector_6" d="M26.9648 11.9451H28.4798" stroke="black" stroke-linecap="round" stroke-linejoin="round"/>
<path id="Vector_7" d="M26.9648 19.2451H28.4798" stroke="black" stroke-linecap="round" stroke-linejoin="round"/>
<path id="Vector_8" d="M27.4902 15.595H29.0052" stroke="black" stroke-linecap="round" stroke-linejoin="round"/>
<path id="Vector_9" d="M10.1001 31.6699H21.9001" stroke="black" stroke-linecap="round" stroke-linejoin="round"/>
<path id="Vector_10" d="M13.605 27.9199V31.5849" stroke="black" stroke-linecap="round" stroke-linejoin="round"/>
<path id="Vector_11" d="M18.3101 27.9199V31.5849" stroke="black" stroke-linecap="round" stroke-linejoin="round"/>
<path id="Vector_12" d="M6.4851 4.34497H3.2251V7.60497H6.4851V4.34497Z" fill="black" stroke="black" stroke-linecap="round" stroke-linejoin="round"/>
<path id="Vector_13" d="M14.0002 4.34497H10.7402V7.60497H14.0002V4.34497Z" fill="black" stroke="black" stroke-linecap="round" stroke-linejoin="round"/>
<path id="Vector_14" d="M21.5149 4.34497H18.2549V7.60497H21.5149V4.34497Z" fill="black" stroke="black" stroke-linecap="round" stroke-linejoin="round"/>
<path id="Vector_15" d="M6.4851 10.425H3.2251V13.685H6.4851V10.425Z" fill="black" stroke="black" stroke-linecap="round" stroke-linejoin="round"/>
<path id="Vector_16" d="M14.0002 10.425H10.7402V13.685H14.0002V10.425Z" fill="black" stroke="black" stroke-linecap="round" stroke-linejoin="round"/>
<path id="Vector_17" d="M21.5149 10.425H18.2549V13.685H21.5149V10.425Z" fill="black" stroke="black" stroke-linecap="round" stroke-linejoin="round"/>
<path id="Vector_18" d="M6.4851 16.29H3.2251V19.55H6.4851V16.29Z" fill="black" stroke="black" stroke-linecap="round" stroke-linejoin="round"/>
<path id="Vector_19" d="M14.0002 16.29H10.7402V19.55H14.0002V16.29Z" fill="black" stroke="black" stroke-linecap="round" stroke-linejoin="round"/>
<path id="Vector_20" d="M21.5149 16.29H18.2549V19.55H21.5149V16.29Z" fill="black" stroke="black" stroke-linecap="round" stroke-linejoin="round"/>
</g>
<defs>
<clipPath id="clip0_184_1318">
<rect width="32" height="32.17" fill="white"/>
</clipPath>
</defs>
</svg>
