<svg width="32" height="32" viewBox="0 0 32 32" fill="none" xmlns="http://www.w3.org/2000/svg">
<g id="icons" clip-path="url(#clip0_184_1341)">
<path id="Vector" d="M19.105 25.615H1.395C0.900705 25.615 0.5 26.0157 0.5 26.51V30.4C0.5 30.8943 0.900705 31.295 1.395 31.295H19.105C19.5993 31.295 20 30.8943 20 30.4V26.51C20 26.0157 19.5993 25.615 19.105 25.615Z" stroke="black" stroke-linecap="round" stroke-linejoin="round"/>
<path id="Vector_2" d="M16.9251 30.035C17.7729 30.035 18.4601 29.3276 18.4601 28.455C18.4601 27.5824 17.7729 26.875 16.9251 26.875C16.0774 26.875 15.3901 27.5824 15.3901 28.455C15.3901 29.3276 16.0774 30.035 16.9251 30.035Z" fill="black"/>
<path id="Vector_3" d="M2.31494 27.6799H13.6999" stroke="black" stroke-linecap="round" stroke-linejoin="round"/>
<path id="Vector_4" d="M2.31494 29.2251H13.6999" stroke="black" stroke-linecap="round" stroke-linejoin="round"/>
<path id="Vector_5" d="M19.105 19.7051H1.395C0.900705 19.7051 0.5 20.1058 0.5 20.6001V24.4901C0.5 24.9844 0.900705 25.3851 1.395 25.3851H19.105C19.5993 25.3851 20 24.9844 20 24.4901V20.6001C20 20.1058 19.5993 19.7051 19.105 19.7051Z" stroke="black" stroke-linecap="round" stroke-linejoin="round"/>
<path id="Vector_6" d="M16.9251 24.1251C17.7729 24.1251 18.4601 23.4177 18.4601 22.5451C18.4601 21.6725 17.7729 20.9651 16.9251 20.9651C16.0774 20.9651 15.3901 21.6725 15.3901 22.5451C15.3901 23.4177 16.0774 24.1251 16.9251 24.1251Z" fill="black"/>
<path id="Vector_7" d="M2.31494 21.7749H13.6999" stroke="black" stroke-linecap="round" stroke-linejoin="round"/>
<path id="Vector_8" d="M2.31494 23.3149H13.6999" stroke="black" stroke-linecap="round" stroke-linejoin="round"/>
<path id="Vector_9" d="M19.105 13.7949H1.395C0.900705 13.7949 0.5 14.1956 0.5 14.6899V18.5799C0.5 19.0742 0.900705 19.4749 1.395 19.4749H19.105C19.5993 19.4749 20 19.0742 20 18.5799V14.6899C20 14.1956 19.5993 13.7949 19.105 13.7949Z" stroke="black" stroke-linecap="round" stroke-linejoin="round"/>
<path id="Vector_10" d="M16.9251 18.2149C17.7729 18.2149 18.4601 17.5075 18.4601 16.6349C18.4601 15.7623 17.7729 15.0549 16.9251 15.0549C16.0774 15.0549 15.3901 15.7623 15.3901 16.6349C15.3901 17.5075 16.0774 18.2149 16.9251 18.2149Z" fill="black"/>
<path id="Vector_11" d="M2.31494 15.865H13.6999" stroke="black" stroke-linecap="round" stroke-linejoin="round"/>
<path id="Vector_12" d="M2.31494 17.4099H13.6999" stroke="black" stroke-linecap="round" stroke-linejoin="round"/>
<path id="Vector_13" d="M6.5899 13.6299C6.5449 13.3449 6.5249 13.0399 6.5249 12.7049C6.5249 8.89488 10.2449 8.72488 10.2449 8.72488C10.2449 8.72488 9.2949 6.03988 11.4549 4.48488C13.6199 2.92488 15.3499 4.74488 15.3499 4.74488C15.3499 4.74488 15.8699 0.504883 20.8899 0.504883C25.5649 0.504883 27.3799 5.69988 26.2449 7.68988C28.1599 7.68988 31.1299 8.63988 31.1299 12.4499C31.1299 16.2599 26.9499 17.2099 26.3449 17.2099H20.3899" stroke="black" stroke-linecap="round" stroke-linejoin="round"/>
</g>
<defs>
<clipPath id="clip0_184_1341">
<rect width="31.635" height="31.795" fill="white"/>
</clipPath>
</defs>
</svg>
