<svg width="334" height="55" viewBox="0 0 334 55" fill="none" xmlns="http://www.w3.org/2000/svg">
<path d="M252.086 35.204C251.185 35.204 250.42 35.0283 249.791 34.677C249.162 34.3257 248.655 33.8553 248.27 33.266C247.884 32.671 247.601 32.008 247.42 31.277C247.244 30.546 247.156 29.8037 247.156 29.05C247.156 28.302 247.247 27.5653 247.428 26.84C247.615 26.109 247.904 25.446 248.295 24.851C248.686 24.256 249.193 23.7828 249.817 23.4315C250.446 23.0745 251.202 22.896 252.086 22.896C252.817 22.896 253.435 23.0008 253.939 23.2105C254.449 23.4202 254.863 23.6893 255.18 24.018C255.503 24.341 255.752 24.681 255.928 25.038L254.602 25.718C254.415 25.4403 254.211 25.1938 253.99 24.9785C253.769 24.7575 253.506 24.5847 253.2 24.46C252.894 24.3353 252.522 24.273 252.086 24.273C251.451 24.273 250.916 24.4175 250.48 24.7065C250.043 24.9955 249.692 25.3752 249.426 25.8455C249.165 26.3158 248.975 26.8315 248.856 27.3925C248.743 27.9535 248.686 28.506 248.686 29.05C248.686 29.6393 248.751 30.2173 248.882 30.784C249.012 31.3507 249.216 31.8635 249.494 32.3225C249.771 32.7758 250.123 33.1385 250.548 33.4105C250.978 33.6768 251.491 33.81 252.086 33.81C252.743 33.81 253.27 33.6712 253.667 33.3935C254.064 33.1102 254.398 32.7447 254.67 32.297L256.03 32.807C255.826 33.249 255.548 33.6513 255.197 34.014C254.846 34.3767 254.412 34.6657 253.897 34.881C253.387 35.0963 252.783 35.204 252.086 35.204ZM259.922 35L264.138 23.1H265.515L269.731 35H268.218L267.198 32.093H262.472L261.469 35H259.922ZM262.914 30.784H266.739L265.209 26.381C265.169 26.2677 265.124 26.1373 265.073 25.99C265.027 25.837 264.982 25.6897 264.937 25.548C264.891 25.4007 264.857 25.276 264.835 25.174C264.806 25.276 264.77 25.4007 264.724 25.548C264.685 25.6897 264.639 25.837 264.588 25.99C264.543 26.1373 264.5 26.2677 264.461 26.381L262.914 30.784ZM275.23 35V24.511H271.915V23.1H280.024V24.511H276.709V35H275.23ZM282.213 35L286.429 23.1H287.806L292.022 35H290.509L289.489 32.093H284.763L283.76 35H282.213ZM285.205 30.784H289.03L287.5 26.381C287.46 26.2677 287.415 26.1373 287.364 25.99C287.319 25.837 287.273 25.6897 287.228 25.548C287.183 25.4007 287.149 25.276 287.126 25.174C287.098 25.276 287.061 25.4007 287.016 25.548C286.976 25.6897 286.931 25.837 286.88 25.99C286.834 26.1373 286.792 26.2677 286.752 26.381L285.205 30.784ZM296.598 35V23.1H298.077V33.572H303.925V35H296.598ZM313.013 35.204C312.078 35.204 311.288 35.0255 310.642 34.6685C309.996 34.3058 309.477 33.827 309.086 33.232C308.695 32.6313 308.409 31.9683 308.228 31.243C308.052 30.5177 307.964 29.7867 307.964 29.05C307.964 28.3133 308.052 27.5823 308.228 26.857C308.409 26.1317 308.695 25.4715 309.086 24.8765C309.477 24.2758 309.996 23.797 310.642 23.44C311.288 23.0773 312.078 22.896 313.013 22.896C313.954 22.896 314.747 23.0773 315.393 23.44C316.039 23.797 316.558 24.2758 316.949 24.8765C317.34 25.4715 317.623 26.1317 317.799 26.857C317.974 27.5823 318.062 28.3133 318.062 29.05C318.062 29.7867 317.974 30.5177 317.799 31.243C317.623 31.9683 317.34 32.6313 316.949 33.232C316.558 33.827 316.039 34.3058 315.393 34.6685C314.747 35.0255 313.954 35.204 313.013 35.204ZM313.013 33.81C313.671 33.81 314.223 33.6655 314.671 33.3765C315.118 33.0875 315.478 32.7078 315.75 32.2375C316.028 31.7615 316.226 31.2458 316.345 30.6905C316.47 30.1295 316.532 29.5827 316.532 29.05C316.532 28.4663 316.47 27.894 316.345 27.333C316.226 26.7663 316.028 26.2535 315.75 25.7945C315.478 25.3298 315.118 24.9615 314.671 24.6895C314.223 24.4118 313.671 24.273 313.013 24.273C312.362 24.273 311.812 24.4175 311.364 24.7065C310.917 24.9955 310.554 25.378 310.276 25.854C310.004 26.3243 309.806 26.84 309.681 27.401C309.557 27.962 309.494 28.5117 309.494 29.05C309.494 29.6337 309.557 30.2088 309.681 30.7755C309.806 31.3365 310.004 31.8465 310.276 32.3055C310.554 32.7645 310.917 33.13 311.364 33.402C311.812 33.674 312.362 33.81 313.013 33.81ZM327.811 35.204C326.91 35.204 326.14 35.034 325.499 34.694C324.859 34.3483 324.338 33.8837 323.935 33.3C323.533 32.7107 323.235 32.0505 323.043 31.3195C322.856 30.5828 322.762 29.8263 322.762 29.05C322.762 28.2793 322.861 27.5285 323.06 26.7975C323.264 26.0665 323.57 25.4092 323.978 24.8255C324.391 24.2362 324.916 23.7687 325.55 23.423C326.185 23.0717 326.939 22.896 327.811 22.896C328.548 22.896 329.16 22.9952 329.647 23.1935C330.14 23.3918 330.545 23.6525 330.863 23.9755C331.18 24.2928 331.449 24.63 331.67 24.987L330.344 25.752C330.072 25.361 329.746 25.021 329.367 24.732C328.987 24.4373 328.469 24.29 327.811 24.29C327.148 24.29 326.59 24.4345 326.137 24.7235C325.689 25.0068 325.329 25.3837 325.057 25.854C324.785 26.3243 324.59 26.84 324.471 27.401C324.352 27.9563 324.292 28.506 324.292 29.05C324.292 29.662 324.36 30.2513 324.496 30.818C324.632 31.3847 324.842 31.8918 325.125 32.3395C325.409 32.7872 325.771 33.1413 326.213 33.402C326.661 33.6627 327.194 33.793 327.811 33.793C328.35 33.793 328.817 33.6768 329.214 33.4445C329.616 33.2122 329.928 32.892 330.149 32.484C330.37 32.0703 330.48 31.5943 330.48 31.056V30.58H328.321V29.22H332.027V30.648C332.027 31.634 331.84 32.467 331.466 33.147C331.098 33.8213 330.594 34.3342 329.953 34.6855C329.319 35.0312 328.605 35.204 327.811 35.204Z" fill="white"/>
<g clip-path="url(#clip0_232_720)">
<path d="M20.6578 28.5816C17.2195 31.3771 19.3074 33.1411 22.9151 33.3155C25.7305 33.47 28.5559 33.0813 31.3215 32.5432C33.1602 32.1644 35.0089 31.7259 36.7231 31.0632C40.7843 29.4587 49.5993 24.8195 47.3619 19.4677C46.6792 17.913 45.3039 16.7619 43.6993 16.1988C42.4436 15.6955 41.0882 15.3766 39.7478 15.1922C31.0275 14.0511 20.3289 16.5875 12.2913 20.0308C8.8032 21.5257 5.39979 23.2598 2.20068 25.3128C3.69559 24.1268 5.28019 23.0555 6.90965 22.0489C15.5153 16.7818 25.4515 13.518 35.587 13.2688C38.0237 13.2837 40.5451 13.4582 42.8921 14.1458C43.3356 14.2305 43.8937 14.4747 44.3222 14.6242C44.7906 14.7886 45.284 15.0029 45.7374 15.277C48.5578 16.8466 50.3367 20.5042 48.8817 23.6235C46.9632 27.899 41.3822 30.7891 37.1815 32.3139C35.3328 32.9468 33.4343 33.3454 31.5158 33.6444C28.6556 34.058 25.7405 34.3221 22.8504 33.9733C19.0882 33.5996 16.6664 31.2625 20.6578 28.5816Z" fill="url(#paint0_linear_232_720)"/>
<path d="M39.3791 26.2146C43.2658 22.0887 35.6717 21.9591 33.1054 21.989C30.9428 22.0239 28.82 22.4325 26.7172 22.9258C21.3405 24.3161 15.5004 26.404 11.5389 30.4053C11.1901 30.7591 10.8562 31.1677 10.5523 31.5564C9.79982 32.7324 9.14704 34.1825 9.43606 35.5628C9.8945 37.4962 11.7631 38.5177 13.6069 39.1904C20.1894 41.3331 28.3417 40.0325 35.0937 38.8715C32.2932 39.7834 29.413 40.4461 26.5029 40.9245C23.5729 41.3879 20.5781 41.662 17.6032 41.4378C13.1733 41.1737 6.45621 39.0559 7.8963 33.3503C8.31488 31.7607 9.16698 30.3754 10.2981 29.2194C14.0703 25.4323 19.1779 23.4391 24.2456 22.1036C27.8633 21.2166 31.6255 20.6685 35.3428 21.1917C38.1782 21.5056 43.211 22.9208 39.3741 26.2096L39.3791 26.2146Z" fill="white"/>
<path d="M21.3208 37.217C31.237 37.217 51.3435 31.5064 56.4163 22.4822C58.0059 19.7565 58.255 16.0341 55.5741 13.9313C53.5759 12.1573 51.0994 11.2305 48.4434 10.5977C51.7621 10.8418 56.3565 12.6008 58.1354 15.6156C60.0539 19.2582 58.1005 23.5585 55.5393 26.3291C51.2838 30.9184 45.3041 33.4399 39.4341 35.2337C33.594 36.9379 27.3951 38.0591 21.3208 37.227V37.217Z" fill="white"/>
<path d="M31.6707 18.6655C26.0498 19.4628 20.5834 21.2617 15.4509 23.6585C12.0674 25.2132 8.90819 27.3011 6.31701 29.972C4.11451 32.2891 1.41371 35.9367 3.2375 39.1059C5.06129 41.9413 9.48123 42.9329 12.6654 43.481C23.6928 45.1752 35.4727 42.3399 45.8922 38.7471C47.6861 38.1143 49.4651 37.4515 51.2191 36.7041C47.8555 38.5129 44.3276 39.9929 40.7398 41.2984C31.7205 44.4627 21.9787 46.5605 12.4013 45.1304C8.6391 44.5125 3.97997 43.4212 1.80239 39.963C-0.509737 36.0712 2.49005 31.6114 5.25064 28.9206C8.03117 26.175 11.3997 24.117 14.9925 22.642C20.2894 20.4594 25.9302 18.9346 31.6707 18.6705V18.6655Z" fill="url(#paint1_linear_232_720)"/>
<path d="M26.4733 31.3221C24.5599 31.3221 23.035 30.9284 22.3025 30.1909C21.8989 29.7823 21.7395 29.284 21.8341 28.7359C22.1979 26.7277 26.0298 24.5451 30.5544 23.7578C33.7884 23.1947 36.5739 23.5386 37.6553 24.6249C38.0589 25.0335 38.2183 25.5318 38.1237 26.0799C37.7599 28.0881 33.9279 30.2706 29.4034 31.058C28.3669 31.2373 27.3802 31.327 26.4783 31.327L26.4733 31.3221ZM33.4845 23.9771C32.6074 23.9771 31.6407 24.0618 30.6342 24.2362C26.4385 24.9637 22.6264 27.0666 22.3075 28.8256C22.2378 29.2142 22.3474 29.5581 22.6414 29.8521C23.5981 30.8138 26.279 31.1078 29.3137 30.5846C33.5094 29.857 37.3214 27.7542 37.6403 25.9952C37.7101 25.6065 37.6004 25.2627 37.3064 24.9687C36.6686 24.3259 35.2534 23.9771 33.4795 23.9771H33.4845Z" fill="url(#paint2_linear_232_720)"/>
<path d="M85.1187 23.3442H80.6439L76.3485 27.7442V16.9609L72.5664 18.7349V38.8016H76.3485V31.9947L77.8733 30.4849L82.2135 38.8016H86.3295L80.6439 27.7891L85.1187 23.3442Z" fill="white"/>
<path d="M104.587 20.7832C103.865 19.7218 102.918 18.8697 101.742 18.2269C100.566 17.5841 99.1309 17.2651 97.4417 17.2651C95.7524 17.2651 94.3123 17.5841 93.1313 18.2269C91.9504 18.8697 91.0036 19.7168 90.281 20.7832C89.5585 21.8495 89.0353 23.0255 88.7014 24.3161C88.3676 25.6067 88.2031 26.9073 88.2031 28.2178C88.2031 29.5284 88.3676 30.8289 88.7014 32.1195C89.0353 33.4102 89.5585 34.5861 90.281 35.6525C91.0036 36.7189 91.9504 37.566 93.1313 38.2088C94.3123 38.8466 95.7474 39.1705 97.4417 39.1705C99.1359 39.1705 100.571 38.8516 101.742 38.2088C102.918 37.571 103.865 36.7189 104.587 35.6525C105.31 34.5911 105.833 33.4102 106.162 32.1195C106.491 30.8289 106.655 29.5284 106.655 28.2178C106.655 26.9073 106.491 25.6067 106.162 24.3161C105.833 23.0255 105.31 21.8495 104.587 20.7832ZM92.5384 25.7562C92.7128 24.9141 93.0018 24.1318 93.4004 23.4142C93.7991 22.6917 94.3273 22.1086 94.99 21.6652C95.6528 21.2217 96.47 20.9974 97.4466 20.9974C98.4233 20.9974 99.2306 21.2117 99.8883 21.6402C100.088 21.7698 100.267 21.9143 100.441 22.0638L92.8822 31.9302C92.7377 31.5515 92.6231 31.1528 92.5384 30.7392C92.364 29.8921 92.2743 29.05 92.2743 28.2129C92.2743 27.3757 92.364 26.5984 92.5384 25.7562ZM102.33 30.6545C102.151 31.4967 101.857 32.274 101.453 32.9916C101.049 33.7091 100.516 34.2872 99.8584 34.7307C99.1957 35.1741 98.3934 35.3934 97.4466 35.3934C96.4999 35.3934 95.6777 35.1841 95.0199 34.7606C94.7757 34.6011 94.5515 34.4217 94.3422 34.2224L101.936 24.3111C102.106 24.7397 102.24 25.1882 102.34 25.6665C102.514 26.5186 102.604 27.3657 102.604 28.2129C102.604 29.0002 102.514 29.8124 102.33 30.6545Z" fill="white"/>
<path d="M126.956 26.5984C127.265 25.7811 127.42 24.9739 127.42 24.1766C127.42 23.0255 127.2 21.9542 126.762 20.9576C126.323 19.961 125.591 19.1537 124.569 18.5458C123.548 17.9379 122.153 17.6289 120.389 17.6289H110.756V38.8018H114.673V30.7891H118.968L122.975 38.8018H127.375L123.199 30.2559C124.146 29.942 124.933 29.4586 125.556 28.8058C126.179 28.1531 126.647 27.4156 126.956 26.5984ZM123.104 25.5968C122.925 26.0403 122.616 26.399 122.187 26.6781C121.759 26.9571 121.176 27.0917 120.438 27.0917H114.663V21.3163H120.438C121.206 21.3163 121.799 21.4609 122.222 21.7549C122.646 22.0489 122.945 22.4176 123.114 22.8611C123.284 23.3046 123.373 23.7481 123.373 24.1916C123.373 24.6849 123.284 25.1533 123.099 25.5968H123.104Z" fill="white"/>
<path d="M146.569 20.9475C145.767 19.9359 144.72 19.1287 143.43 18.5257C142.139 17.9277 140.574 17.6238 138.741 17.6238H131.605V38.7967H138.621C140.555 38.7967 142.184 38.4778 143.499 37.8349C144.815 37.1971 145.866 36.355 146.654 35.3085C147.441 34.2671 148.009 33.121 148.353 31.8852C148.702 30.6444 148.876 29.4186 148.876 28.2127C148.876 26.8922 148.692 25.6016 148.323 24.3509C147.954 23.0951 147.371 21.959 146.569 20.9475ZM144.511 30.6245C144.307 31.4367 143.978 32.1792 143.529 32.8469C143.081 33.5196 142.488 34.0578 141.75 34.4664C141.013 34.875 140.106 35.0793 139.03 35.0793H135.522V21.3162H139.364C140.32 21.3162 141.143 21.5105 141.83 21.9042C142.518 22.2979 143.081 22.8261 143.524 23.4938C143.968 24.1615 144.297 24.899 144.506 25.7162C144.72 26.5334 144.825 27.3656 144.825 28.2127C144.825 29.01 144.72 29.8123 144.516 30.6245H144.511Z" fill="white"/>
<path d="M156.889 29.7277H163.043V26.0054H156.889V21.3512H167.279V17.6289H152.973V38.8018H167.917V35.0496H156.889V29.7277Z" fill="white"/>
<path d="M184.535 30.0915C184.535 30.2808 184.545 30.5399 184.56 30.8539C184.575 31.1728 184.6 31.4419 184.63 31.6611C184.51 31.407 184.361 31.1279 184.181 30.824C184.007 30.515 183.862 30.2709 183.748 30.0915L175.401 17.6289H171.744V38.8018H175.63V26.2495C175.63 26.0353 175.625 25.7861 175.615 25.4921C175.605 25.1981 175.586 24.929 175.556 24.6749C175.675 24.929 175.825 25.2081 175.999 25.522C176.174 25.836 176.318 26.0751 176.433 26.2495L184.949 38.8018H188.442V17.6289H184.54V30.0915H184.535Z" fill="white"/>
<path d="M192.02 17.6289V21.3961H198.024V38.8018H201.941V21.3961H207.975V17.6289H192.02Z" fill="white"/>
</g>
<line x1="228.5" y1="2.18557e-08" x2="228.5" y2="55" stroke="#B3B6C3"/>
<defs>
<linearGradient id="paint0_linear_232_720" x1="2.20068" y1="23.7033" x2="49.3999" y2="23.7033" gradientUnits="userSpaceOnUse">
<stop stop-color="#1DA7FD"/>
<stop offset="1" stop-color="#08F5DA"/>
</linearGradient>
<linearGradient id="paint1_linear_232_720" x1="0.975205" y1="32.1247" x2="51.2141" y2="32.1247" gradientUnits="userSpaceOnUse">
<stop stop-color="#1DA7FD"/>
<stop offset="1" stop-color="#08F5DA"/>
</linearGradient>
<linearGradient id="paint2_linear_232_720" x1="21.8042" y1="27.4104" x2="38.1436" y2="27.4104" gradientUnits="userSpaceOnUse">
<stop stop-color="#1DA7FD"/>
<stop offset="1" stop-color="#08F5DA"/>
</linearGradient>
<clipPath id="clip0_232_720">
<rect width="207" height="34.9908" fill="white" transform="translate(0.975098 10.5928)"/>
</clipPath>
</defs>
</svg>
