<svg width="473" height="55" viewBox="0 0 473 55" fill="none" xmlns="http://www.w3.org/2000/svg">
<path d="M246.867 35L251.083 23.1H252.46L256.676 35H255.163L254.143 32.093H249.417L248.414 35H246.867ZM249.859 30.784H253.684L252.154 26.381C252.114 26.2677 252.069 26.1373 252.018 25.99C251.973 25.837 251.927 25.6897 251.882 25.548C251.837 25.4007 251.803 25.276 251.78 25.174C251.752 25.276 251.715 25.4007 251.67 25.548C251.63 25.6897 251.585 25.837 251.534 25.99C251.488 26.1373 251.446 26.2677 251.406 26.381L249.859 30.784ZM261.252 35V23.1H265.808C266.771 23.1 267.534 23.2757 268.095 23.627C268.656 23.9727 269.055 24.4203 269.293 24.97C269.531 25.514 269.65 26.0807 269.65 26.67C269.65 27.078 269.579 27.4917 269.438 27.911C269.302 28.3247 269.081 28.7072 268.775 29.0585C268.469 29.4098 268.072 29.6932 267.585 29.9085C267.097 30.1182 266.505 30.223 265.808 30.223H262.731V35H261.252ZM262.731 28.846H265.91C266.471 28.846 266.916 28.7355 267.245 28.5145C267.579 28.2935 267.817 28.0158 267.959 27.6815C268.1 27.3472 268.171 27.01 268.171 26.67C268.171 26.3583 268.106 26.0325 267.976 25.6925C267.851 25.3525 267.624 25.0663 267.296 24.834C266.967 24.596 266.505 24.477 265.91 24.477H262.731V28.846ZM274.34 35V23.1H278.896C279.859 23.1 280.622 23.2757 281.183 23.627C281.744 23.9727 282.143 24.4203 282.381 24.97C282.619 25.514 282.738 26.0807 282.738 26.67C282.738 27.078 282.667 27.4917 282.526 27.911C282.39 28.3247 282.169 28.7072 281.863 29.0585C281.557 29.4098 281.16 29.6932 280.673 29.9085C280.185 30.1182 279.593 30.223 278.896 30.223H275.819V35H274.34ZM275.819 28.846H278.998C279.559 28.846 280.004 28.7355 280.333 28.5145C280.667 28.2935 280.905 28.0158 281.047 27.6815C281.188 27.3472 281.259 27.01 281.259 26.67C281.259 26.3583 281.194 26.0325 281.064 25.6925C280.939 25.3525 280.712 25.0663 280.384 24.834C280.055 24.596 279.593 24.477 278.998 24.477H275.819V28.846ZM287.428 35V23.1H288.907V33.572H294.755V35H287.428ZM299.304 35V23.1H300.783V35H299.304ZM310.919 35.204C310.018 35.204 309.253 35.0283 308.624 34.677C307.995 34.3257 307.487 33.8553 307.102 33.266C306.717 32.671 306.433 32.008 306.252 31.277C306.076 30.546 305.989 29.8037 305.989 29.05C305.989 28.302 306.079 27.5653 306.261 26.84C306.448 26.109 306.737 25.446 307.128 24.851C307.519 24.256 308.026 23.7828 308.649 23.4315C309.278 23.0745 310.035 22.896 310.919 22.896C311.65 22.896 312.267 23.0008 312.772 23.2105C313.282 23.4202 313.695 23.6893 314.013 24.018C314.336 24.341 314.585 24.681 314.761 25.038L313.435 25.718C313.248 25.4403 313.044 25.1938 312.823 24.9785C312.602 24.7575 312.338 24.5847 312.032 24.46C311.726 24.3353 311.355 24.273 310.919 24.273C310.284 24.273 309.748 24.4175 309.312 24.7065C308.876 24.9955 308.524 25.3752 308.258 25.8455C307.997 26.3158 307.808 26.8315 307.689 27.3925C307.575 27.9535 307.519 28.506 307.519 29.05C307.519 29.6393 307.584 30.2173 307.714 30.784C307.844 31.3507 308.048 31.8635 308.326 32.3225C308.604 32.7758 308.955 33.1385 309.38 33.4105C309.811 33.6768 310.324 33.81 310.919 33.81C311.576 33.81 312.103 33.6712 312.5 33.3935C312.896 33.1102 313.231 32.7447 313.503 32.297L314.863 32.807C314.659 33.249 314.381 33.6513 314.03 34.014C313.678 34.3767 313.245 34.6657 312.729 34.881C312.219 35.0963 311.616 35.204 310.919 35.204ZM318.754 35L322.97 23.1H324.347L328.563 35H327.05L326.03 32.093H321.304L320.301 35H318.754ZM321.746 30.784H325.571L324.041 26.381C324.002 26.2677 323.956 26.1373 323.905 25.99C323.86 25.837 323.815 25.6897 323.769 25.548C323.724 25.4007 323.69 25.276 323.667 25.174C323.639 25.276 323.602 25.4007 323.557 25.548C323.517 25.6897 323.472 25.837 323.421 25.99C323.376 26.1373 323.333 26.2677 323.293 26.381L321.746 30.784ZM334.063 35V24.511H330.748V23.1H338.857V24.511H335.542V35H334.063ZM343.737 35V23.1H345.216V35H343.737ZM355.404 35.204C354.469 35.204 353.679 35.0255 353.033 34.6685C352.387 34.3058 351.868 33.827 351.477 33.232C351.086 32.6313 350.8 31.9683 350.619 31.243C350.443 30.5177 350.355 29.7867 350.355 29.05C350.355 28.3133 350.443 27.5823 350.619 26.857C350.8 26.1317 351.086 25.4715 351.477 24.8765C351.868 24.2758 352.387 23.797 353.033 23.44C353.679 23.0773 354.469 22.896 355.404 22.896C356.345 22.896 357.138 23.0773 357.784 23.44C358.43 23.797 358.949 24.2758 359.34 24.8765C359.731 25.4715 360.014 26.1317 360.19 26.857C360.365 27.5823 360.453 28.3133 360.453 29.05C360.453 29.7867 360.365 30.5177 360.19 31.243C360.014 31.9683 359.731 32.6313 359.34 33.232C358.949 33.827 358.43 34.3058 357.784 34.6685C357.138 35.0255 356.345 35.204 355.404 35.204ZM355.404 33.81C356.062 33.81 356.614 33.6655 357.062 33.3765C357.509 33.0875 357.869 32.7078 358.141 32.2375C358.419 31.7615 358.617 31.2458 358.736 30.6905C358.861 30.1295 358.923 29.5827 358.923 29.05C358.923 28.4663 358.861 27.894 358.736 27.333C358.617 26.7663 358.419 26.2535 358.141 25.7945C357.869 25.3298 357.509 24.9615 357.062 24.6895C356.614 24.4118 356.062 24.273 355.404 24.273C354.753 24.273 354.203 24.4175 353.755 24.7065C353.308 24.9955 352.945 25.378 352.667 25.854C352.395 26.3243 352.197 26.84 352.072 27.401C351.948 27.962 351.885 28.5117 351.885 29.05C351.885 29.6337 351.948 30.2088 352.072 30.7755C352.197 31.3365 352.395 31.8465 352.667 32.3055C352.945 32.7645 353.308 33.13 353.755 33.402C354.203 33.674 354.753 33.81 355.404 33.81ZM365.58 35V23.1H367.076L372.346 31.566C372.431 31.7077 372.513 31.8493 372.593 31.991C372.672 32.1327 372.754 32.2857 372.839 32.45C372.834 32.3027 372.825 32.1553 372.814 32.008C372.808 31.8607 372.805 31.719 372.805 31.583V23.1H374.284V35H372.856L367.501 26.5C367.428 26.3697 367.348 26.2337 367.263 26.092C367.184 25.9503 367.105 25.8087 367.025 25.667C367.037 25.7917 367.045 25.9277 367.051 26.075C367.056 26.2223 367.059 26.364 367.059 26.5V35H365.58ZM390.797 35.204C389.896 35.204 389.131 35.0283 388.502 34.677C387.873 34.3257 387.366 33.8553 386.981 33.266C386.596 32.671 386.312 32.008 386.131 31.277C385.955 30.546 385.867 29.8037 385.867 29.05C385.867 28.302 385.958 27.5653 386.139 26.84C386.326 26.109 386.615 25.446 387.006 24.851C387.397 24.256 387.905 23.7828 388.528 23.4315C389.157 23.0745 389.913 22.896 390.797 22.896C391.528 22.896 392.146 23.0008 392.65 23.2105C393.16 23.4202 393.574 23.6893 393.891 24.018C394.214 24.341 394.464 24.681 394.639 25.038L393.313 25.718C393.126 25.4403 392.922 25.1938 392.701 24.9785C392.48 24.7575 392.217 24.5847 391.911 24.46C391.605 24.3353 391.234 24.273 390.797 24.273C390.163 24.273 389.627 24.4175 389.191 24.7065C388.755 24.9955 388.403 25.3752 388.137 25.8455C387.876 26.3158 387.686 26.8315 387.567 27.3925C387.454 27.9535 387.397 28.506 387.397 29.05C387.397 29.6393 387.463 30.2173 387.593 30.784C387.723 31.3507 387.927 31.8635 388.205 32.3225C388.483 32.7758 388.834 33.1385 389.259 33.4105C389.69 33.6768 390.202 33.81 390.797 33.81C391.455 33.81 391.982 33.6712 392.378 33.3935C392.775 33.1102 393.109 32.7447 393.381 32.297L394.741 32.807C394.537 33.249 394.26 33.6513 393.908 34.014C393.557 34.3767 393.124 34.6657 392.608 34.881C392.098 35.0963 391.494 35.204 390.797 35.204ZM398.633 35L402.849 23.1H404.226L408.442 35H406.929L405.909 32.093H401.183L400.18 35H398.633ZM401.625 30.784H405.45L403.92 26.381C403.881 26.2677 403.835 26.1373 403.784 25.99C403.739 25.837 403.694 25.6897 403.648 25.548C403.603 25.4007 403.569 25.276 403.546 25.174C403.518 25.276 403.481 25.4007 403.436 25.548C403.396 25.6897 403.351 25.837 403.3 25.99C403.254 26.1373 403.212 26.2677 403.172 26.381L401.625 30.784ZM413.941 35V24.511H410.626V23.1H418.735V24.511H415.42V35H413.941ZM420.924 35L425.14 23.1H426.517L430.733 35H429.22L428.2 32.093H423.474L422.471 35H420.924ZM423.916 30.784H427.741L426.211 26.381C426.172 26.2677 426.126 26.1373 426.075 25.99C426.03 25.837 425.985 25.6897 425.939 25.548C425.894 25.4007 425.86 25.276 425.837 25.174C425.809 25.276 425.772 25.4007 425.727 25.548C425.687 25.6897 425.642 25.837 425.591 25.99C425.546 26.1373 425.503 26.2677 425.463 26.381L423.916 30.784ZM435.309 35V23.1H436.788V33.572H442.636V35H435.309ZM451.725 35.204C450.79 35.204 449.999 35.0255 449.353 34.6685C448.707 34.3058 448.189 33.827 447.798 33.232C447.407 32.6313 447.12 31.9683 446.939 31.243C446.763 30.5177 446.676 29.7867 446.676 29.05C446.676 28.3133 446.763 27.5823 446.939 26.857C447.12 26.1317 447.407 25.4715 447.798 24.8765C448.189 24.2758 448.707 23.797 449.353 23.44C449.999 23.0773 450.79 22.896 451.725 22.896C452.665 22.896 453.459 23.0773 454.105 23.44C454.751 23.797 455.269 24.2758 455.66 24.8765C456.051 25.4715 456.334 26.1317 456.51 26.857C456.686 27.5823 456.774 28.3133 456.774 29.05C456.774 29.7867 456.686 30.5177 456.51 31.243C456.334 31.9683 456.051 32.6313 455.66 33.232C455.269 33.827 454.751 34.3058 454.105 34.6685C453.459 35.0255 452.665 35.204 451.725 35.204ZM451.725 33.81C452.382 33.81 452.934 33.6655 453.382 33.3765C453.83 33.0875 454.19 32.7078 454.462 32.2375C454.739 31.7615 454.938 31.2458 455.057 30.6905C455.181 30.1295 455.244 29.5827 455.244 29.05C455.244 28.4663 455.181 27.894 455.057 27.333C454.938 26.7663 454.739 26.2535 454.462 25.7945C454.19 25.3298 453.83 24.9615 453.382 24.6895C452.934 24.4118 452.382 24.273 451.725 24.273C451.073 24.273 450.523 24.4175 450.076 24.7065C449.628 24.9955 449.265 25.378 448.988 25.854C448.716 26.3243 448.517 26.84 448.393 27.401C448.268 27.962 448.206 28.5117 448.206 29.05C448.206 29.6337 448.268 30.2088 448.393 30.7755C448.517 31.3365 448.716 31.8465 448.988 32.3055C449.265 32.7645 449.628 33.13 450.076 33.402C450.523 33.674 451.073 33.81 451.725 33.81ZM466.523 35.204C465.622 35.204 464.851 35.034 464.211 34.694C463.57 34.3483 463.049 33.8837 462.647 33.3C462.244 32.7107 461.947 32.0505 461.754 31.3195C461.567 30.5828 461.474 29.8263 461.474 29.05C461.474 28.2793 461.573 27.5285 461.771 26.7975C461.975 26.0665 462.281 25.4092 462.689 24.8255C463.103 24.2362 463.627 23.7687 464.262 23.423C464.896 23.0717 465.65 22.896 466.523 22.896C467.259 22.896 467.871 22.9952 468.359 23.1935C468.852 23.3918 469.257 23.6525 469.574 23.9755C469.891 24.2928 470.161 24.63 470.382 24.987L469.056 25.752C468.784 25.361 468.458 25.021 468.078 24.732C467.698 24.4373 467.18 24.29 466.523 24.29C465.86 24.29 465.301 24.4345 464.848 24.7235C464.4 25.0068 464.041 25.3837 463.769 25.854C463.497 26.3243 463.301 26.84 463.182 27.401C463.063 27.9563 463.004 28.506 463.004 29.05C463.004 29.662 463.072 30.2513 463.208 30.818C463.344 31.3847 463.553 31.8918 463.837 32.3395C464.12 32.7872 464.483 33.1413 464.925 33.402C465.372 33.6627 465.905 33.793 466.523 33.793C467.061 33.793 467.528 33.6768 467.925 33.4445C468.327 33.2122 468.639 32.892 468.86 32.484C469.081 32.0703 469.192 31.5943 469.192 31.056V30.58H467.033V29.22H470.739V30.648C470.739 31.634 470.552 32.467 470.178 33.147C469.809 33.8213 469.305 34.3342 468.665 34.6855C468.03 35.0312 467.316 35.204 466.523 35.204Z" fill="white"/>
<g clip-path="url(#clip0_1_522)">
<path d="M20.658 28.5815C17.2197 31.377 19.3076 33.141 22.9153 33.3154C25.7307 33.4699 28.5561 33.0812 31.3217 32.543C33.1604 32.1643 35.0091 31.7258 36.7233 31.0631C40.7845 29.4585 49.5994 24.8193 47.3621 19.4676C46.6794 17.9128 45.3041 16.7618 43.6995 16.1987C42.4438 15.6954 41.0884 15.3765 39.748 15.1921C31.0277 14.051 20.3291 16.5874 12.2915 20.0306C8.80338 21.5255 5.39997 23.2596 2.20087 25.3126C3.69578 24.1267 5.28038 23.0553 6.90983 22.0488C15.5155 16.7817 25.4517 13.5178 35.5872 13.2687C38.0239 13.2836 40.5453 13.458 42.8923 14.1457C43.3358 14.2304 43.8939 14.4746 44.3224 14.624C44.7908 14.7885 45.2841 15.0028 45.7376 15.2768C48.558 16.8465 50.3369 20.504 48.8819 23.6234C46.9634 27.8988 41.3824 30.789 37.1817 32.3138C35.333 32.9466 33.4345 33.3453 31.516 33.6443C28.6558 34.0579 25.7407 34.322 22.8505 33.9732C19.0884 33.5994 16.6666 31.2624 20.658 28.5815Z" fill="url(#paint0_linear_1_522)"/>
<path d="M39.3793 26.2146C43.266 22.0886 35.6719 21.959 33.1056 21.9889C30.943 22.0238 28.8202 22.4324 26.7174 22.9258C21.3407 24.316 15.5006 26.4039 11.5391 30.4053C11.1903 30.7591 10.8564 31.1677 10.5525 31.5564C9.80002 32.7324 9.14724 34.1824 9.43626 35.5627C9.8947 37.4961 11.7633 38.5177 13.6071 39.1904C20.1896 41.3331 28.3419 40.0325 35.0939 38.8714C32.2934 39.7833 29.4132 40.4461 26.5031 40.9245C23.5731 41.3879 20.5783 41.6619 17.6034 41.4377C13.1735 41.1736 6.45641 39.0558 7.8965 33.3503C8.31508 31.7607 9.16717 30.3754 10.2983 29.2193C14.0705 25.4322 19.1781 23.439 24.2458 22.1036C27.8635 21.2166 31.6257 20.6684 35.343 21.1917C38.1784 21.5056 43.2112 22.9208 39.3743 26.2096L39.3793 26.2146Z" fill="white"/>
<path d="M21.3208 37.2169C31.237 37.2169 51.3435 31.5064 56.4162 22.4821C58.0058 19.7564 58.255 16.0341 55.5741 13.9312C53.5759 12.1573 51.0993 11.2304 48.4434 10.5976C51.7621 10.8418 56.3564 12.6008 58.1354 15.6155C60.0538 19.2581 58.1005 23.5584 55.5392 26.329C51.2837 30.9184 45.3041 33.4398 39.4341 35.2337C33.594 36.9379 27.3951 38.0591 21.3208 37.2269V37.2169Z" fill="white"/>
<path d="M31.6705 18.6653C26.0496 19.4626 20.5833 21.2615 15.4507 23.6583C12.0673 25.213 8.90802 27.3009 6.31684 29.9718C4.11435 32.2889 1.41354 35.9365 3.23733 39.1057C5.06112 41.9411 9.48107 42.9327 12.6652 43.4808C23.6927 45.175 35.4725 42.3397 45.8921 38.7469C47.6859 38.1141 49.4649 37.4513 51.2189 36.7039C47.8554 38.5127 44.3274 39.9927 40.7396 41.2982C31.7203 44.4625 21.9785 46.5603 12.4011 45.1302C8.63894 44.5123 3.9798 43.421 1.80222 39.9628C-0.509905 36.071 2.48988 31.6112 5.25048 28.9204C8.03101 26.1747 11.3995 24.1168 14.9923 22.6418C20.2893 20.4592 25.93 18.9344 31.6705 18.6703V18.6653Z" fill="url(#paint1_linear_1_522)"/>
<path d="M26.4732 31.322C24.5597 31.322 23.0349 30.9284 22.3024 30.1909C21.8988 29.7823 21.7393 29.284 21.834 28.7358C22.1978 26.7277 26.0297 24.5451 30.5543 23.7578C33.7883 23.1947 36.5738 23.5385 37.6551 24.6248C38.0588 25.0334 38.2182 25.5317 38.1235 26.0799C37.7598 28.088 33.9278 30.2706 29.4032 31.0579C28.3668 31.2373 27.3801 31.327 26.4782 31.327L26.4732 31.322ZM33.4843 23.977C32.6073 23.977 31.6406 24.0618 30.634 24.2362C26.4383 24.9637 22.6263 27.0665 22.3074 28.8255C22.2376 29.2142 22.3473 29.558 22.6413 29.852C23.598 30.8138 26.2789 31.1078 29.3135 30.5845C33.5092 29.857 37.3213 27.7542 37.6402 25.9952C37.7099 25.6065 37.6003 25.2627 37.3063 24.9687C36.6685 24.3259 35.2533 23.977 33.4794 23.977H33.4843Z" fill="url(#paint2_linear_1_522)"/>
<path d="M85.1185 23.3442H80.6437L76.3484 27.7442V16.9609L72.5663 18.7349V38.8015H76.3484V31.9947L77.8732 30.4849L82.2134 38.8015H86.3294L80.6437 27.789L85.1185 23.3442Z" fill="white"/>
<path d="M104.587 20.7831C103.865 19.7217 102.918 18.8696 101.742 18.2268C100.566 17.584 99.1308 17.2651 97.4415 17.2651C95.7523 17.2651 94.3122 17.584 93.1312 18.2268C91.9502 18.8696 91.0035 19.7167 90.2809 20.7831C89.5584 21.8495 89.0352 23.0254 88.7013 24.3161C88.3674 25.6067 88.203 26.9072 88.203 28.2178C88.203 29.5283 88.3674 30.8289 88.7013 32.1195C89.0352 33.4101 89.5584 34.5861 90.2809 35.6524C91.0035 36.7188 91.9502 37.5659 93.1312 38.2087C94.3122 38.8466 95.7473 39.1705 97.4415 39.1705C99.1358 39.1705 100.571 38.8515 101.742 38.2087C102.918 37.5709 103.865 36.7188 104.587 35.6524C105.31 34.5911 105.833 33.4101 106.162 32.1195C106.491 30.8289 106.655 29.5283 106.655 28.2178C106.655 26.9072 106.491 25.6067 106.162 24.3161C105.833 23.0254 105.31 21.8495 104.587 20.7831ZM92.5382 25.7561C92.7126 24.914 93.0017 24.1317 93.4003 23.4141C93.7989 22.6916 94.3271 22.1086 94.9899 21.6651C95.6526 21.2216 96.4698 20.9974 97.4465 20.9974C98.4232 20.9974 99.2304 21.2116 99.8882 21.6402C100.088 21.7697 100.267 21.9142 100.441 22.0637L92.8821 31.9301C92.7376 31.5514 92.6229 31.1528 92.5382 30.7392C92.3638 29.8921 92.2741 29.0499 92.2741 28.2128C92.2741 27.3756 92.3638 26.5983 92.5382 25.7561ZM102.33 30.6545C102.15 31.4966 101.857 32.2739 101.453 32.9915C101.049 33.7091 100.516 34.2871 99.8583 34.7306C99.1956 35.1741 98.3933 35.3933 97.4465 35.3933C96.4997 35.3933 95.6775 35.184 95.0198 34.7605C94.7756 34.601 94.5514 34.4216 94.3421 34.2223L101.936 24.3111C102.106 24.7396 102.24 25.1881 102.34 25.6665C102.514 26.5185 102.604 27.3657 102.604 28.2128C102.604 29.0001 102.514 29.8123 102.33 30.6545Z" fill="white"/>
<path d="M126.956 26.5983C127.265 25.781 127.419 24.9738 127.419 24.1765C127.419 23.0254 127.2 21.9541 126.762 20.9575C126.323 19.9609 125.591 19.1536 124.569 18.5457C123.548 17.9378 122.152 17.6288 120.388 17.6288H110.756V38.8017H114.673V30.789H118.968L122.975 38.8017H127.375L123.199 30.2558C124.146 29.9419 124.933 29.4585 125.556 28.8057C126.179 28.153 126.647 27.4155 126.956 26.5983ZM123.104 25.5967C122.925 26.0402 122.616 26.3989 122.187 26.678C121.759 26.957 121.176 27.0916 120.438 27.0916H114.663V21.3163H120.438C121.206 21.3163 121.799 21.4608 122.222 21.7548C122.646 22.0488 122.945 22.4175 123.114 22.861C123.284 23.3045 123.373 23.748 123.373 24.1915C123.373 24.6848 123.284 25.1532 123.099 25.5967H123.104Z" fill="white"/>
<path d="M146.569 20.9474C145.767 19.9358 144.721 19.1286 143.43 18.5256C142.139 17.9277 140.575 17.6237 138.741 17.6237H131.605V38.7966H138.621C140.555 38.7966 142.184 38.4777 143.5 37.8349C144.815 37.197 145.867 36.3549 146.654 35.3085C147.441 34.267 148.009 33.1209 148.353 31.8851C148.702 30.6444 148.876 29.4185 148.876 28.2126C148.876 26.8921 148.692 25.6015 148.323 24.3508C147.954 23.0951 147.371 21.9589 146.569 20.9474ZM144.511 30.6244C144.307 31.4367 143.978 32.1791 143.53 32.8469C143.081 33.5196 142.488 34.0577 141.751 34.4663C141.013 34.875 140.106 35.0793 139.03 35.0793H135.522V21.3161H139.364C140.32 21.3161 141.143 21.5105 141.83 21.9041C142.518 22.2978 143.081 22.826 143.525 23.4937C143.968 24.1614 144.297 24.8989 144.506 25.7161C144.721 26.5334 144.825 27.3655 144.825 28.2126C144.825 29.0099 144.72 29.8122 144.516 30.6244H144.511Z" fill="white"/>
<path d="M156.889 29.7276H163.043V26.0053H156.889V21.3511H167.279V17.6288H152.972V38.8017H167.917V35.0495H156.889V29.7276Z" fill="white"/>
<path d="M184.535 30.0914C184.535 30.2807 184.545 30.5398 184.56 30.8538C184.575 31.1727 184.6 31.4418 184.63 31.661C184.51 31.4069 184.36 31.1278 184.181 30.8239C184.007 30.5149 183.862 30.2708 183.748 30.0914L175.401 17.6288H171.743V38.8017H175.63V26.2495C175.63 26.0352 175.625 25.786 175.615 25.492C175.605 25.198 175.585 24.929 175.555 24.6748C175.675 24.929 175.825 25.208 175.999 25.5219C176.173 25.8359 176.318 26.075 176.432 26.2495L184.948 38.8017H188.442V17.6288H184.54V30.0914H184.535Z" fill="white"/>
<path d="M192.019 17.6288V21.396H198.024V38.8017H201.941V21.396H207.975V17.6288H192.019Z" fill="white"/>
</g>
<line x1="228.5" y1="2.18557e-08" x2="228.5" y2="55" stroke="#B3B6C3"/>
<defs>
<linearGradient id="paint0_linear_1_522" x1="2.20087" y1="23.7031" x2="49.4001" y2="23.7031" gradientUnits="userSpaceOnUse">
<stop stop-color="#1DA7FD"/>
<stop offset="1" stop-color="#08F5DA"/>
</linearGradient>
<linearGradient id="paint1_linear_1_522" x1="0.975037" y1="32.1245" x2="51.2139" y2="32.1245" gradientUnits="userSpaceOnUse">
<stop stop-color="#1DA7FD"/>
<stop offset="1" stop-color="#08F5DA"/>
</linearGradient>
<linearGradient id="paint2_linear_1_522" x1="21.8041" y1="27.4103" x2="38.1435" y2="27.4103" gradientUnits="userSpaceOnUse">
<stop stop-color="#1DA7FD"/>
<stop offset="1" stop-color="#08F5DA"/>
</linearGradient>
<clipPath id="clip0_1_522">
<rect width="207" height="34.9908" fill="white" transform="translate(0.975082 10.5927)"/>
</clipPath>
</defs>
</svg>
