<svg width="208" height="36" viewBox="0 0 208 36" fill="none" xmlns="http://www.w3.org/2000/svg">
<g clip-path="url(#clip0_74_122)">
<path d="M20.6581 18.5815C17.2198 21.377 19.3077 23.141 22.9154 23.3154C25.7308 23.4699 28.5562 23.0812 31.3217 22.543C33.1605 22.1643 35.0092 21.7258 36.7233 21.0631C40.7845 19.4585 49.5995 14.8193 47.3621 9.46755C46.6794 7.91285 45.3041 6.76177 43.6996 6.19869C42.4439 5.6954 41.0885 5.37649 39.748 5.19211C31.0277 4.051 20.3292 6.58736 12.2916 10.0306C8.80344 11.5255 5.40003 13.2596 2.20093 15.3126C3.69584 14.1267 5.28044 13.0553 6.90989 12.0488C15.5156 6.7817 25.4517 3.51782 35.5872 3.26867C38.0239 3.28361 40.5453 3.45802 42.8923 4.14568C43.3358 4.23039 43.8939 4.47456 44.3225 4.62405C44.7909 4.78849 45.2842 5.00276 45.7376 5.27683C48.558 6.84648 50.337 10.504 48.8819 13.6234C46.9635 17.8988 41.3825 20.789 37.1818 22.3138C35.3331 22.9466 33.4346 23.3453 31.5161 23.6443C28.6558 24.0579 25.7408 24.322 22.8506 23.9732C19.0884 23.5994 16.6667 21.2624 20.6581 18.5815Z" fill="url(#paint0_linear_74_122)"/>
<path d="M39.3793 16.2146C43.2661 12.0886 35.672 11.959 33.1057 11.9889C30.9431 12.0238 28.8203 12.4324 26.7174 12.9258C21.3408 14.316 15.5007 16.4039 11.5391 20.4053C11.1903 20.7591 10.8565 21.1677 10.5525 21.5564C9.80007 22.7324 9.14729 24.1824 9.4363 25.5627C9.89474 27.4961 11.7634 28.5177 13.6071 29.1904C20.1897 31.3331 28.3419 30.0325 35.0939 28.8714C32.2935 29.7833 29.4133 30.4461 26.5032 30.9245C23.5732 31.3879 20.5784 31.6619 17.6035 31.4377C13.1736 31.1736 6.45645 29.0558 7.89655 23.3503C8.31512 21.7607 9.16722 20.3754 10.2984 19.2193C14.0705 15.4322 19.1781 13.439 24.2459 12.1036C27.8635 11.2166 31.6257 10.6684 35.3431 11.1917C38.1784 11.5056 43.2113 12.9208 39.3743 16.2096L39.3793 16.2146Z" fill="white"/>
<path d="M21.3208 27.2169C31.237 27.2169 51.3435 21.5064 56.4163 12.4821C58.0059 9.75639 58.255 6.03407 55.5741 3.93123C53.5759 2.15728 51.0994 1.23043 48.4434 0.597588C51.7621 0.841756 56.3565 2.60076 58.1354 5.6155C60.0539 9.25809 58.1005 13.5584 55.5393 16.329C51.2838 20.9184 45.3041 23.4398 39.4341 25.2337C33.594 26.9379 27.3951 28.0591 21.3208 27.2269V27.2169Z" fill="white"/>
<path d="M31.6705 8.66533C26.0497 9.46261 20.5833 11.2615 15.4508 13.6583C12.0673 15.213 8.90806 17.3009 6.31689 19.9718C4.11439 22.2889 1.41359 25.9365 3.23738 29.1057C5.06117 31.9411 9.48111 32.9327 12.6653 33.4808C23.6927 35.175 35.4726 32.3397 45.8921 28.7469C47.686 28.1141 49.4649 27.4513 51.219 26.7039C47.8554 28.5127 44.3274 29.9927 40.7397 31.2982C31.7204 34.4625 21.9785 36.5603 12.4012 35.1302C8.63898 34.5123 3.97985 33.421 1.80227 29.9628C-0.50986 26.071 2.48992 21.6112 5.25052 18.9204C8.03105 16.1747 11.3996 14.1168 14.9923 12.6418C20.2893 10.4592 25.9301 8.93441 31.6705 8.67031V8.66533Z" fill="url(#paint1_linear_74_122)"/>
<path d="M26.4732 21.322C24.5597 21.322 23.0349 20.9284 22.3024 20.1909C21.8988 19.7823 21.7393 19.284 21.834 18.7358C22.1978 16.7277 26.0297 14.5451 30.5543 13.7578C33.7883 13.1947 36.5738 13.5385 37.6551 14.6248C38.0588 15.0334 38.2182 15.5317 38.1235 16.0799C37.7598 18.088 33.9278 20.2706 29.4032 21.0579C28.3668 21.2373 27.3801 21.327 26.4782 21.327L26.4732 21.322ZM33.4843 13.977C32.6073 13.977 31.6406 14.0618 30.634 14.2362C26.4383 14.9637 22.6263 17.0665 22.3074 18.8255C22.2376 19.2142 22.3473 19.558 22.6413 19.852C23.598 20.8138 26.2789 21.1078 29.3135 20.5845C33.5092 19.857 37.3213 17.7542 37.6402 15.9952C37.7099 15.6065 37.6003 15.2627 37.3063 14.9687C36.6685 14.3259 35.2533 13.977 33.4794 13.977H33.4843Z" fill="url(#paint2_linear_74_122)"/>
<path d="M85.1185 13.3442H80.6438L76.3484 17.7442V6.96093L72.5663 8.73488V28.8015H76.3484V21.9947L77.8732 20.4849L82.2134 28.8015H86.3294L80.6438 17.789L85.1185 13.3442Z" fill="white"/>
<path d="M104.587 10.7831C103.865 9.7217 102.918 8.8696 101.742 8.22679C100.566 7.58398 99.1308 7.26506 97.4415 7.26506C95.7523 7.26506 94.3122 7.58398 93.1312 8.22679C91.9502 8.8696 91.0035 9.71671 90.2809 10.7831C89.5584 11.8495 89.0352 13.0254 88.7013 14.3161C88.3674 15.6067 88.203 16.9072 88.203 18.2178C88.203 19.5283 88.3674 20.8289 88.7013 22.1195C89.0352 23.4101 89.5584 24.5861 90.2809 25.6524C91.0035 26.7188 91.9502 27.5659 93.1312 28.2087C94.3122 28.8466 95.7473 29.1705 97.4415 29.1705C99.1358 29.1705 100.571 28.8515 101.742 28.2087C102.918 27.5709 103.865 26.7188 104.587 25.6524C105.31 24.5911 105.833 23.4101 106.162 22.1195C106.491 20.8289 106.655 19.5283 106.655 18.2178C106.655 16.9072 106.491 15.6067 106.162 14.3161C105.833 13.0254 105.31 11.8495 104.587 10.7831ZM92.5382 15.7561C92.7126 14.914 93.0017 14.1317 93.4003 13.4141C93.7989 12.6916 94.3271 12.1086 94.9899 11.6651C95.6526 11.2216 96.4698 10.9974 97.4465 10.9974C98.4232 10.9974 99.2304 11.2116 99.8882 11.6402C100.088 11.7697 100.267 11.9142 100.441 12.0637L92.8821 21.9301C92.7376 21.5514 92.6229 21.1528 92.5382 20.7392C92.3638 19.8921 92.2741 19.0499 92.2741 18.2128C92.2741 17.3756 92.3638 16.5983 92.5382 15.7561ZM102.33 20.6545C102.15 21.4966 101.857 22.2739 101.453 22.9915C101.049 23.7091 100.516 24.2871 99.8583 24.7306C99.1956 25.1741 98.3933 25.3933 97.4465 25.3933C96.4997 25.3933 95.6775 25.184 95.0198 24.7605C94.7756 24.601 94.5514 24.4216 94.3421 24.2223L101.936 14.3111C102.106 14.7396 102.24 15.1881 102.34 15.6665C102.514 16.5185 102.604 17.3657 102.604 18.2128C102.604 19.0001 102.514 19.8123 102.33 20.6545Z" fill="white"/>
<path d="M126.956 16.5983C127.265 15.781 127.419 14.9738 127.419 14.1765C127.419 13.0254 127.2 11.9541 126.762 10.9575C126.323 9.96087 125.591 9.15362 124.569 8.54569C123.548 7.93776 122.152 7.62881 120.388 7.62881H110.756V28.8017H114.673V20.789H118.968L122.975 28.8017H127.375L123.199 20.2558C124.146 19.9419 124.933 19.4585 125.556 18.8057C126.179 18.153 126.647 17.4155 126.956 16.5983ZM123.104 15.5967C122.925 16.0402 122.616 16.3989 122.187 16.678C121.759 16.957 121.176 17.0916 120.438 17.0916H114.663V11.3163H120.438C121.206 11.3163 121.799 11.4608 122.222 11.7548C122.646 12.0488 122.945 12.4175 123.114 12.861C123.284 13.3045 123.373 13.748 123.373 14.1915C123.373 14.6848 123.284 15.1532 123.099 15.5967H123.104Z" fill="white"/>
<path d="M146.569 10.9474C145.767 9.93583 144.721 9.12858 143.43 8.52564C142.139 7.92767 140.575 7.62371 138.741 7.62371H131.605V28.7966H138.621C140.555 28.7966 142.184 28.4777 143.5 27.8349C144.815 27.197 145.867 26.3549 146.654 25.3085C147.441 24.267 148.009 23.1209 148.353 21.8851C148.702 20.6444 148.876 19.4185 148.876 18.2126C148.876 16.8921 148.692 15.6015 148.323 14.3508C147.955 13.0951 147.372 11.9589 146.569 10.9474ZM144.511 20.6244C144.307 21.4367 143.978 22.1791 143.53 22.8469C143.081 23.5196 142.488 24.0577 141.751 24.4663C141.013 24.875 140.106 25.0793 139.03 25.0793H135.522V11.3161H139.364C140.321 11.3161 141.143 11.5105 141.83 11.9041C142.518 12.2978 143.081 12.826 143.525 13.4937C143.968 14.1614 144.297 14.8989 144.506 15.7161C144.721 16.5334 144.825 17.3655 144.825 18.2126C144.825 19.0099 144.721 19.8122 144.516 20.6244H144.511Z" fill="white"/>
<path d="M156.889 19.7276H163.043V16.0053H156.889V11.3511H167.279V7.62881H152.972V28.8017H167.917V25.0495H156.889V19.7276Z" fill="white"/>
<path d="M184.535 20.0914C184.535 20.2807 184.545 20.5398 184.56 20.8538C184.575 21.1727 184.6 21.4418 184.63 21.661C184.51 21.4069 184.36 21.1278 184.181 20.8239C184.007 20.5149 183.862 20.2708 183.748 20.0914L175.401 7.62881H171.743V28.8017H175.63V16.2495C175.63 16.0352 175.625 15.786 175.615 15.492C175.605 15.198 175.585 14.929 175.555 14.6748C175.675 14.929 175.824 15.208 175.999 15.5219C176.173 15.8359 176.318 16.075 176.432 16.2495L184.948 28.8017H188.442V7.62881H184.54V20.0914H184.535Z" fill="white"/>
<path d="M192.019 7.62881V11.396H198.024V28.8017H201.941V11.396H207.975V7.62881H192.019Z" fill="white"/>
</g>
<defs>
<linearGradient id="paint0_linear_74_122" x1="2.20093" y1="13.7031" x2="49.4002" y2="13.7031" gradientUnits="userSpaceOnUse">
<stop stop-color="#1DA7FD"/>
<stop offset="1" stop-color="#08F5DA"/>
</linearGradient>
<linearGradient id="paint1_linear_74_122" x1="0.975083" y1="22.1245" x2="51.214" y2="22.1245" gradientUnits="userSpaceOnUse">
<stop stop-color="#1DA7FD"/>
<stop offset="1" stop-color="#08F5DA"/>
</linearGradient>
<linearGradient id="paint2_linear_74_122" x1="21.8041" y1="17.4103" x2="38.1435" y2="17.4103" gradientUnits="userSpaceOnUse">
<stop stop-color="#1DA7FD"/>
<stop offset="1" stop-color="#08F5DA"/>
</linearGradient>
<clipPath id="clip0_74_122">
<rect width="207" height="34.9908" fill="white" transform="translate(0.975098 0.592651)"/>
</clipPath>
</defs>
</svg>
